<svg width="61" height="61" viewBox="0 0 61 61" fill="none" xmlns="http://www.w3.org/2000/svg">
<path d="M24.4839 41.6096C24.7083 41.9229 25.0042 42.1781 25.347 42.3542C25.6898 42.5303 26.0696 42.6221 26.455 42.6221C26.8403 42.6221 27.2201 42.5303 27.5629 42.3542C27.9057 42.1781 28.2016 41.9229 28.426 41.6096L44.4843 19.3446C44.774 18.9405 44.4843 18.3762 43.9886 18.3762H40.4125C39.6348 18.3762 38.8951 18.7498 38.4376 19.3903L26.4588 36.0128L21.0298 28.4793C20.5723 27.8465 19.8403 27.4652 19.0549 27.4652H15.4788C14.9831 27.4652 14.6934 28.0295 14.9831 28.4336L24.4839 41.6096Z" fill="white"/>
<path d="M58.56 0H2.44C1.09037 0 0 1.09037 0 2.44V58.56C0 59.9096 1.09037 61 2.44 61H58.56C59.9096 61 61 59.9096 61 58.56V2.44C61 1.09037 59.9096 0 58.56 0ZM55.51 55.51H5.49V5.49H55.51V55.51Z" fill="white"/>
</svg>
