<svg width="118" height="127" viewBox="0 0 118 127" fill="none" xmlns="http://www.w3.org/2000/svg">
<g filter="url(#filter0_d_167_593)">
<path d="M96.5 80.5H73.5V75.5H96.5V80.5ZM112.5 104.5H89.5V99.5H112.5V104.5ZM104.5 92.5H81.5V87.5H104.5V92.5Z" stroke="#1498D5"/>
<path d="M59.7989 75.6945L59.7989 75.7029L59.7989 75.703C59.7989 75.7072 59.7996 75.7942 59.8045 75.9595C59.8094 76.1266 59.8185 76.3699 59.835 76.6813C59.868 77.3044 59.9307 78.1994 60.0496 79.3025C60.2875 81.5102 60.7492 84.5424 61.6432 87.8903C63.4378 94.6102 66.9389 102.471 73.7315 107.568C74.5683 108.195 75.1863 109.07 75.4982 110.068C75.8101 111.067 75.7999 112.138 75.4692 113.13C75.1384 114.122 74.5038 114.986 73.6553 115.597C72.8068 116.209 71.7873 116.538 70.7414 116.538H11.0257H11.0249V115.538L59.7989 75.6945ZM59.7989 75.6945C59.7693 72.1609 58.8269 68.695 57.0629 65.633C55.464 62.8574 53.2393 60.4993 50.5713 58.7431L79.5706 8.48326L80.0699 7.61777L79.2048 7.11772L72.3134 3.13423L71.4471 2.63349L70.9469 3.50006L41.1252 55.1617M59.7989 75.6945L41.1252 55.1617M41.1252 55.1617C37.4814 54.466 33.7215 54.6348 30.149 55.6589C26.3414 56.7504 22.8682 58.7787 20.0465 61.5584L41.1252 55.1617Z" stroke="#1498D5" stroke-width="2"/>
<path d="M34.5 65.5937C18.9 68.7937 16.1667 95.5937 16 108.594L27.5 109.094C22.7 99.0937 24.8333 90.5937 26.5 87.5937H32C30.8 94.7937 34.1667 104.594 36 108.594H44.5C40.1 104.594 39.6667 92.927 40 87.5937H46C45.2 97.1937 50.6667 105.594 53.5 108.594H59.5C56.5 106.094 52 87.0937 51.5 82.5937C51 78.0937 53.5 61.6963 34.5 65.5937Z" stroke="#1498D5" stroke-width="2"/>
</g>
<defs>
<filter id="filter0_d_167_593" x="0" y="0.266968" width="118" height="126.271" filterUnits="userSpaceOnUse" color-interpolation-filters="sRGB">
<feFlood flood-opacity="0" result="BackgroundImageFix"/>
<feColorMatrix in="SourceAlpha" type="matrix" values="0 0 0 0 0 0 0 0 0 0 0 0 0 0 0 0 0 0 127 0" result="hardAlpha"/>
<feOffset dy="4"/>
<feGaussianBlur stdDeviation="2.5"/>
<feComposite in2="hardAlpha" operator="out"/>
<feColorMatrix type="matrix" values="0 0 0 0 0 0 0 0 0 0 0 0 0 0 0 0 0 0 0.2 0"/>
<feBlend mode="normal" in2="BackgroundImageFix" result="effect1_dropShadow_167_593"/>
<feBlend mode="normal" in="SourceGraphic" in2="effect1_dropShadow_167_593" result="shape"/>
</filter>
</defs>
</svg>
