<svg width="128" height="137" viewBox="0 0 128 137" fill="none" xmlns="http://www.w3.org/2000/svg">
<g filter="url(#filter0_d_167_560)">
<path d="M79.637 103.369L86.857 112.622L98.143 106.105L93.7513 95.2422C95.73 93.5675 97.5676 91.7327 99.2423 89.7485L110.105 94.1429L116.622 82.857L107.369 75.637C108.237 73.2213 108.921 70.7241 109.383 68.1429L121 66.5143V53.4857L109.383 51.8571C108.921 49.2759 108.237 46.7787 107.369 44.363L116.622 37.143L110.105 25.857L99.2423 30.2514C97.5676 28.27 95.73 26.4324 93.7513 24.7577L98.143 13.8951L86.857 7.37812L79.637 16.6339C77.2213 15.7626 74.7241 15.0785 72.1429 14.6171L70.5143 3.00001H57.4857L55.8571 14.6171C53.2759 15.0785 50.7785 15.7626 48.3644 16.6339L41.1416 7.37812L29.8584 13.8951L34.249 24.7577C32.2695 26.4324 30.4319 28.27 28.7566 30.2514L17.8943 25.857L11.379 37.143L20.633 44.363C19.7615 46.7787 19.0797 49.2759 18.6185 51.8571L7 53.4857V66.5143L18.6185 68.1429C19.0797 70.7241 19.7615 73.2213 20.633 75.637L11.379 82.857L17.8943 94.1429L28.7566 89.7485C30.4319 91.7327 32.2695 93.5675 34.249 95.2422L29.8584 106.105L41.1416 112.622L48.3644 103.369" stroke="#1498D5" stroke-width="2.66667" stroke-miterlimit="10" stroke-linejoin="round"/>
<path d="M64 24.7144C83.4886 24.7144 99.2857 40.5116 99.2857 60.0001" stroke="#1498D5" stroke-width="2.66667" stroke-miterlimit="10" stroke-linecap="round" stroke-linejoin="round"/>
<path d="M47.8896 91.4016C36.5031 85.5469 28.7145 73.6828 28.7145 60.0001" stroke="#1498D5" stroke-width="2.66667" stroke-miterlimit="10" stroke-linecap="round" stroke-linejoin="round"/>
<path d="M72.1432 127.857V80.7644C72.1432 79.6895 72.7891 78.7531 73.7554 78.2835C80.8478 74.8472 85.7146 68.485 85.7146 60.0001C85.7146 52.6145 82.0286 46.0893 76.3937 42.1672C74.6077 40.924 72.1459 42.2514 72.1459 44.4282L72.1432 57.2858C72.1432 58.7841 70.9299 60.0001 69.4289 60.0001H58.5717C57.0707 60.0001 55.8574 58.7841 55.8574 57.2858L55.8547 44.4282C55.8547 42.2514 53.3929 40.924 51.6069 42.1672C45.9736 46.0893 42.286 52.6145 42.286 60.0001C42.286 68.485 47.1527 74.8472 54.2452 78.2835C55.2114 78.7531 55.8574 79.6895 55.8574 80.7644V127.857" stroke="#1498D5" stroke-width="2.66667" stroke-miterlimit="10" stroke-linejoin="round"/>
</g>
<defs>
<filter id="filter0_d_167_560" x="0.666626" y="0.666687" width="126.667" height="136.191" filterUnits="userSpaceOnUse" color-interpolation-filters="sRGB">
<feFlood flood-opacity="0" result="BackgroundImageFix"/>
<feColorMatrix in="SourceAlpha" type="matrix" values="0 0 0 0 0 0 0 0 0 0 0 0 0 0 0 0 0 0 127 0" result="hardAlpha"/>
<feOffset dy="4"/>
<feGaussianBlur stdDeviation="2.5"/>
<feComposite in2="hardAlpha" operator="out"/>
<feColorMatrix type="matrix" values="0 0 0 0 0 0 0 0 0 0 0 0 0 0 0 0 0 0 0.2 0"/>
<feBlend mode="normal" in2="BackgroundImageFix" result="effect1_dropShadow_167_560"/>
<feBlend mode="normal" in="SourceGraphic" in2="effect1_dropShadow_167_560" result="shape"/>
</filter>
</defs>
</svg>
