<svg width="24" height="23" viewBox="0 0 24 23" fill="none" xmlns="http://www.w3.org/2000/svg">
<path fill-rule="evenodd" clip-rule="evenodd" d="M17.9028 5.6618C18.1737 5.92631 18.386 6.24235 18.5266 6.59032L18.5287 6.59083C18.8996 7.50497 18.8791 9.49533 18.8658 10.7857C18.8636 10.9992 18.8616 11.1935 18.8616 11.3606C18.8616 11.5277 18.8636 11.7221 18.8658 11.9356C18.8791 13.2266 18.8996 15.2193 18.5287 16.1304C18.3881 16.4784 18.1757 16.7944 17.9049 17.0589C17.634 17.3234 17.3104 17.5308 16.9541 17.6681C16.0189 18.0306 13.9844 18.0104 12.6626 17.9974C12.4431 17.9952 12.2433 17.9932 12.0714 17.9932C11.9028 17.9932 11.7071 17.995 11.4924 17.9971C10.1703 18.0095 8.12364 18.0287 7.18824 17.6681C6.83193 17.5308 6.5083 17.3234 6.23744 17.0589C5.96659 16.7944 5.75427 16.4784 5.61367 16.1304C5.24271 15.213 5.26222 13.2111 5.27479 11.9211C5.27682 11.7131 5.27867 11.5236 5.27867 11.3601C5.27867 11.1961 5.27681 11.0059 5.27477 10.797C5.26216 9.5064 5.2426 7.50427 5.6116 6.59032C5.7522 6.24235 5.96451 5.92631 6.23537 5.6618C6.50623 5.39729 6.82985 5.18995 7.18617 5.05264C8.12135 4.69011 10.1568 4.71027 11.4784 4.72336C11.6978 4.72553 11.8976 4.72751 12.0693 4.72751C12.2379 4.72751 12.4335 4.72567 12.6482 4.72366C13.9699 4.71125 16.0166 4.69203 16.952 5.05264C17.3083 5.18995 17.6319 5.39729 17.9028 5.6618ZM9.71039 14.8089C10.4086 15.2645 11.2295 15.5076 12.0692 15.5076C12.627 15.5083 13.1794 15.4015 13.6948 15.1934C14.2103 14.9852 14.6786 14.6798 15.073 14.2947C15.4674 13.9095 15.7801 13.4522 15.9932 12.9488C16.2063 12.4455 16.3157 11.906 16.315 11.3613C16.315 10.5413 16.066 9.7396 15.5995 9.05775C15.1329 8.37589 14.4698 7.84444 13.694 7.53062C12.9182 7.21679 12.0645 7.13468 11.2409 7.29467C10.4173 7.45466 9.66079 7.84955 9.067 8.42943C8.47322 9.0093 8.06884 9.7481 7.90502 10.5524C7.74119 11.3567 7.82528 12.1904 8.14663 12.948C8.46798 13.7057 9.01218 14.3533 9.71039 14.8089ZM15.9393 7.84601C16.1023 7.95229 16.294 8.00897 16.49 8.00887L16.4921 8.01089C16.6223 8.01082 16.7512 7.98566 16.8714 7.93684C16.9916 7.88802 17.1007 7.81651 17.1925 7.72641C17.2844 7.6363 17.3571 7.52938 17.4065 7.41177C17.4559 7.29416 17.4811 7.16818 17.4805 7.04106C17.4805 6.84962 17.4224 6.66248 17.3135 6.50332C17.2046 6.34415 17.0498 6.2201 16.8686 6.14687C16.6875 6.07363 16.4882 6.05449 16.296 6.09188C16.1037 6.12926 15.9271 6.22149 15.7886 6.35689C15.65 6.49229 15.5556 6.66478 15.5175 6.85256C15.4793 7.04033 15.499 7.23494 15.5741 7.41177C15.6492 7.58861 15.7763 7.73972 15.9393 7.84601Z" fill="#025ED4"/>
<path fill-rule="evenodd" clip-rule="evenodd" d="M19.9306 0H4.20777H2.95629H0.470947V2.42711V3.92469V18.7288V20.2259V22.6535H4.20777V22.6531H19.9306V22.6537H23.6674V20.2461L23.6675 20.2259V2.42711L23.6674 2.40693V0H21.1821H19.9306ZM20.2957 14.6638C20.2289 15.9598 19.926 17.1081 18.9572 18.0517C17.9885 18.9952 16.8136 19.2971 15.4881 19.3588C14.1207 19.4341 10.0209 19.4341 8.65342 19.3588C7.32635 19.2935 6.15461 18.9972 5.1843 18.0517C4.21398 17.1061 3.909 15.9573 3.84584 14.6638C3.76869 13.3279 3.76869 9.32366 3.84584 7.98925C3.91263 6.69327 4.21191 5.54494 5.1843 4.6014C6.15669 3.65786 7.33153 3.35953 8.65342 3.29784C10.0209 3.2225 14.1207 3.2225 15.4881 3.29784C16.8152 3.36307 17.9905 3.65938 18.9572 4.60494C19.9239 5.55051 20.2325 6.69934 20.2957 7.99532C20.3728 9.32618 20.3728 13.3269 20.2957 14.6638Z" fill="#025ED4"/>
</svg>
