<svg width="154" height="36" viewBox="0 0 154 36" fill="none" xmlns="http://www.w3.org/2000/svg">
<path fill-rule="evenodd" clip-rule="evenodd" d="M32.3989 1.78882H152.317V34.2112H32.3989V1.78882ZM32.3989 0H152.317H154V1.78882V34.2112V36H152.317H32.3989H1.68306H0V34.2112V1.78882V0H1.68306H32.3989Z" fill="#1498D5"/>
<path d="M49.0185 25.2081C47.6636 25.2081 46.4377 24.8925 45.341 24.2618C44.2571 23.6171 43.4055 22.7395 42.7861 21.6286C42.1667 20.5041 41.8571 19.2423 41.8571 17.8435C41.8571 16.4446 42.1667 15.1898 42.7861 14.0789C43.4055 12.9543 44.2636 12.0766 45.3603 11.4458C46.4571 10.8012 47.683 10.4789 49.0378 10.4789C50.0958 10.4789 51.0636 10.6709 51.9411 11.0549C52.8186 11.4252 53.5669 11.9806 54.1863 12.7212L52.9282 14.0172C51.9089 12.8789 50.6378 12.3098 49.1153 12.3098C48.1088 12.3098 47.1991 12.5498 46.3862 13.0298C45.5733 13.5098 44.9345 14.1749 44.47 15.0252C44.0183 15.8618 43.7926 16.8012 43.7926 17.8435C43.7926 18.8858 44.0183 19.832 44.47 20.6823C44.9345 21.5189 45.5733 22.1772 46.3862 22.6572C47.1991 23.1373 48.1088 23.3772 49.1153 23.3772C50.625 23.3772 51.8959 22.8012 52.9282 21.6492L54.1863 22.9452C53.5669 23.6858 52.8121 24.2481 51.9218 24.6321C51.0443 25.016 50.0765 25.2081 49.0185 25.2081ZM56.6764 9.77948H58.5345V25.0435H56.6764V9.77948ZM62.0824 14.1406H63.9405V25.0435H62.0824V14.1406ZM63.0114 12.0423C62.65 12.0423 62.3468 11.9189 62.1017 11.6721C61.8695 11.4252 61.7534 11.1235 61.7534 10.7669C61.7534 10.4103 61.8695 10.1086 62.1017 9.86177C62.3468 9.6012 62.65 9.47091 63.0114 9.47091C63.3727 9.47091 63.6695 9.59434 63.9018 9.8412C64.1469 10.0743 64.2695 10.3692 64.2695 10.7258C64.2695 11.0961 64.1469 11.4115 63.9018 11.6721C63.6695 11.9189 63.3727 12.0423 63.0114 12.0423ZM80.3207 14.0378C81.6109 14.0378 82.6305 14.4355 83.3788 15.2309C84.1402 16.0263 84.5207 17.2058 84.5207 18.7692V25.0435H82.6626V18.9955C82.6626 17.9395 82.4304 17.1441 81.9659 16.6092C81.5142 16.0743 80.8626 15.8069 80.011 15.8069C79.0691 15.8069 78.3206 16.1223 77.7658 16.7532C77.211 17.3703 76.9335 18.2618 76.9335 19.4275V25.0435H75.0754V18.9955C75.0754 17.9395 74.8431 17.1441 74.3786 16.6092C73.9269 16.0743 73.2754 15.8069 72.4237 15.8069C71.4819 15.8069 70.7333 16.1223 70.1785 16.7532C69.6238 17.3703 69.3463 18.2618 69.3463 19.4275V25.0435H67.4882V14.1406H69.2689V15.7658C69.6431 15.2035 70.1333 14.7783 70.7398 14.4903C71.3464 14.1886 72.0366 14.0378 72.8109 14.0378C73.6109 14.0378 74.3206 14.2092 74.9399 14.5521C75.5593 14.8949 76.0366 15.3955 76.3722 16.0538C76.7593 15.4229 77.2947 14.9292 77.9787 14.5726C78.6755 14.216 79.4562 14.0378 80.3207 14.0378ZM91.6752 14.0378C93.0947 14.0378 94.1786 14.4081 94.9269 15.1486C95.6883 15.8892 96.0689 16.9932 96.0689 18.4606V25.0435H94.3075V23.6035C93.9978 24.1108 93.5527 24.5017 92.972 24.7761C92.4042 25.0365 91.7268 25.1669 90.9397 25.1669C89.7912 25.1669 88.8687 24.872 88.1719 24.2823C87.488 23.6927 87.1461 22.9177 87.1461 21.9578C87.1461 20.9978 87.4751 20.2298 88.1332 19.6538C88.7913 19.0641 89.8365 18.7692 91.2688 18.7692H94.2108V18.3783C94.2108 17.528 93.9785 16.8766 93.514 16.4241C93.0494 15.9715 92.3655 15.7452 91.4623 15.7452C90.8558 15.7452 90.2623 15.8549 89.6816 16.0743C89.101 16.2801 88.6106 16.5612 88.2106 16.9178L87.4364 15.4366C87.9655 14.9841 88.5977 14.6412 89.3332 14.4081C90.0687 14.1612 90.8495 14.0378 91.6752 14.0378ZM91.2494 23.6446C91.959 23.6446 92.5721 23.4801 93.0882 23.1509C93.6042 22.8081 93.9785 22.3281 94.2108 21.7109V20.1886H91.3462C89.7719 20.1886 88.9848 20.7509 88.9848 21.8755C88.9848 22.424 89.1849 22.856 89.5849 23.1715C89.9848 23.487 90.5398 23.6446 91.2494 23.6446ZM102.469 12.4332H97.8234V10.6435H109.03V12.4332H104.385V25.0435H102.469V12.4332ZM119.08 19.6538C119.08 19.8046 119.067 20.0035 119.041 20.2503H110.718C110.835 21.2103 111.228 21.9852 111.899 22.5749C112.583 23.1509 113.428 23.4389 114.435 23.4389C115.661 23.4389 116.648 23 117.396 22.1223L118.422 23.3978C117.957 23.9738 117.377 24.4127 116.68 24.7143C115.996 25.016 115.228 25.1669 114.377 25.1669C113.293 25.1669 112.331 24.9337 111.493 24.4675C110.654 23.9874 110.002 23.3224 109.538 22.4721C109.086 21.6218 108.86 20.6618 108.86 19.5921C108.86 18.536 109.08 17.5829 109.518 16.7326C109.97 15.8823 110.583 15.224 111.357 14.7578C112.144 14.2778 113.028 14.0378 114.009 14.0378C114.99 14.0378 115.861 14.2778 116.622 14.7578C117.396 15.224 117.996 15.8823 118.422 16.7326C118.861 17.5829 119.08 18.5566 119.08 19.6538ZM114.009 15.7041C113.118 15.7041 112.37 15.9921 111.764 16.5681C111.17 17.1441 110.822 17.8983 110.718 18.8309H117.299C117.196 17.9121 116.841 17.1646 116.235 16.5886C115.641 15.9989 114.899 15.7041 114.009 15.7041ZM126.131 25.1669C125.086 25.1669 124.15 24.927 123.325 24.4469C122.512 23.9668 121.873 23.3086 121.408 22.4721C120.944 21.6218 120.712 20.6618 120.712 19.5921C120.712 18.5223 120.944 17.5692 121.408 16.7326C121.873 15.8823 122.512 15.224 123.325 14.7578C124.15 14.2778 125.086 14.0378 126.131 14.0378C127.06 14.0378 127.886 14.2366 128.608 14.6343C129.344 15.0321 129.912 15.6081 130.312 16.3623L128.899 17.3292C128.576 16.808 128.176 16.4172 127.699 16.1566C127.221 15.8961 126.692 15.7658 126.112 15.7658C125.441 15.7658 124.834 15.9235 124.292 16.2389C123.763 16.5543 123.344 17.0069 123.034 17.5966C122.738 18.1726 122.589 18.8378 122.589 19.5921C122.589 20.3601 122.738 21.0389 123.034 21.6286C123.344 22.2046 123.763 22.6503 124.292 22.9658C124.834 23.2813 125.441 23.4389 126.112 23.4389C126.692 23.4389 127.221 23.3085 127.699 23.0481C128.176 22.7876 128.576 22.3967 128.899 21.8755L130.312 22.8218C129.912 23.576 129.344 24.1589 128.608 24.5703C127.886 24.9681 127.06 25.1669 126.131 25.1669ZM138.063 14.0378C139.366 14.0378 140.398 14.4423 141.16 15.2515C141.934 16.0469 142.321 17.2195 142.321 18.7692V25.0435H140.463V18.9955C140.463 17.9395 140.224 17.1441 139.747 16.6092C139.269 16.0743 138.585 15.8069 137.695 15.8069C136.688 15.8069 135.895 16.1223 135.314 16.7532C134.734 17.3703 134.443 18.2618 134.443 19.4275V25.0435H132.585V9.77948H134.443V15.6835C134.83 15.1623 135.334 14.7578 135.953 14.4698C136.585 14.1818 137.288 14.0378 138.063 14.0378Z" fill="black"/>
<path fill-rule="evenodd" clip-rule="evenodd" d="M12.1609 10.9178C10.2775 11.3774 8.87426 13.148 8.87426 15.2621C8.87426 17.7255 10.7795 19.7225 13.1296 19.7225C14.4867 19.7225 15.6954 19.0566 16.4746 18.0196C15.8864 20.5886 13.6805 22.4979 11.0492 22.4979C7.96789 22.4979 5.46997 19.8796 5.46997 16.6498C5.46997 13.42 7.96789 10.8017 11.0492 10.8017C11.4299 10.8017 11.8017 10.8417 12.1609 10.9178Z" fill="white"/>
<path fill-rule="evenodd" clip-rule="evenodd" d="M23.7449 12.4778C23.3125 10.4761 21.6466 8.98468 19.6574 8.98468C17.3397 8.98468 15.4608 11.0096 15.4608 13.5074C15.4608 14.9498 16.0872 16.2344 17.063 17.0626C14.6459 16.4374 12.8495 14.0929 12.8495 11.2963C12.8495 8.02135 15.313 5.36646 18.3518 5.36646C21.3907 5.36646 23.8541 8.02135 23.8541 11.2963C23.8541 11.7009 23.8165 12.096 23.7449 12.4778Z" fill="white"/>
<path fill-rule="evenodd" clip-rule="evenodd" d="M17.7693 18.1696C18.5485 17.1326 19.7572 16.4667 21.1143 16.4667C23.4644 16.4667 25.3696 18.4637 25.3696 20.9271C25.3696 23.0412 23.9664 24.8118 22.083 25.2714C22.4422 25.3475 22.814 25.3875 23.1947 25.3875C26.276 25.3875 28.7739 22.7692 28.7739 19.5394C28.7739 16.3096 26.276 13.6914 23.1947 13.6914C20.5634 13.6914 18.3575 15.6006 17.7693 18.1696Z" fill="white"/>
<path fill-rule="evenodd" clip-rule="evenodd" d="M17.1808 18.7138C18.1565 19.542 18.783 20.8266 18.783 22.269C18.783 24.7668 16.9041 26.7917 14.5863 26.7917C12.5972 26.7917 10.9313 25.3004 10.4989 23.2986C10.4272 23.6804 10.3896 24.0755 10.3896 24.4801C10.3896 27.7551 12.8531 30.4099 15.892 30.4099C18.9308 30.4099 21.3943 27.7551 21.3943 24.4801C21.3943 21.6835 19.5979 19.339 17.1808 18.7138Z" fill="white"/>
</svg>
