<svg width="24" height="23" viewBox="0 0 24 23" fill="none" xmlns="http://www.w3.org/2000/svg">
<path d="M11.8012 4.97609C10.0982 4.97776 8.46553 5.63905 7.26126 6.81488C6.05698 7.9907 5.37949 9.58503 5.37745 11.2481C5.37616 12.4322 5.71669 13.586 6.35906 14.585L6.51127 14.8218L5.86245 17.1358L8.29393 16.5136L8.5274 16.6496C9.51742 17.2218 10.6469 17.5234 11.7973 17.5226H11.7986C13.501 17.5202 15.133 16.8589 16.3369 15.6834C17.5408 14.508 18.2183 12.9143 18.2211 11.2518C18.224 10.4278 18.0595 9.61135 17.7371 8.84979C17.4148 8.08824 16.9409 7.39671 16.3429 6.81524C15.7481 6.23055 15.0404 5.76693 14.2608 5.45123C13.4812 5.13554 12.6452 4.97404 11.8012 4.97609ZM15.578 13.9425C15.4168 14.3834 14.6454 14.784 14.2752 14.8382C13.8694 14.9065 13.4528 14.8811 13.0588 14.7639C12.6851 14.6508 12.3178 14.5184 11.9586 14.3671C10.0211 13.5508 8.757 11.6474 8.65897 11.5202C8.56352 11.3942 7.87213 10.4973 7.87213 9.57017C7.87213 8.64178 8.37003 8.18577 8.54675 7.99682C8.61163 7.92522 8.69094 7.86746 8.77972 7.82715C8.8685 7.78683 8.96483 7.76483 9.06271 7.76252C9.1917 7.76252 9.3194 7.76378 9.43291 7.76882C9.55158 7.77386 9.71024 7.72473 9.86632 8.09256C10.0276 8.47046 10.4145 9.39759 10.4623 9.49207C10.51 9.58529 10.5422 9.69614 10.479 9.82211C10.4145 9.94933 10.3836 10.0262 10.2855 10.137C10.1901 10.2479 10.083 10.3827 9.9966 10.4683C9.89986 10.5615 9.79925 10.6636 9.91147 10.8525C10.025 11.0402 10.412 11.6587 10.9847 12.1588C11.7225 12.8013 12.3455 12.999 12.5377 13.0948C12.7312 13.188 12.8434 13.1741 12.9569 13.0469C13.0692 12.9197 13.4394 12.4964 13.5684 12.3087C13.6973 12.1198 13.825 12.1513 14.0031 12.213C14.1798 12.2772 15.1291 12.732 15.3213 12.8265C15.5122 12.9197 15.6425 12.9675 15.6915 13.0469C15.738 13.125 15.738 13.5016 15.578 13.9425Z" fill="#025ED4"/>
<path fill-rule="evenodd" clip-rule="evenodd" d="M19.1143 0H4.46396H1.47961H0.190918V1.26323V3.49164V21.475C0.190918 21.4832 0.190999 21.4914 0.191162 21.4996V22.7386H4.377V22.7382H19.1143V22.7387H23.3873V21.4932L23.3874 21.475V1.26323L23.3873 1.24504V0H22.0988H19.1143ZM11.8407 18.8171H11.8382C10.5495 18.8173 9.28144 18.5007 8.1499 17.8962L4.05701 18.9485L5.1524 15.0274C4.47581 13.8769 4.11998 12.5721 4.12064 11.2441C4.1213 9.91614 4.47844 8.61169 5.15618 7.46182C5.83392 6.31194 6.8084 5.35713 7.98174 4.69327C9.15508 4.02941 10.486 3.67989 11.8407 3.6798C12.8556 3.67705 13.861 3.87182 14.7985 4.25282C15.736 4.63382 16.587 5.19346 17.3022 5.89931C18.0207 6.60085 18.5902 7.43514 18.9775 8.35388C19.3648 9.27261 19.5624 10.2575 19.5587 11.2516C19.5557 13.2572 18.7415 15.1798 17.2948 16.5979C15.8481 18.0161 13.8867 18.8141 11.8407 18.8171Z" fill="#025ED4"/>
</svg>
